<?xml version="1.0" encoding="utf-8"?><svg xmlns="http://www.w3.org/2000/svg" xmlns:xlink="http://www.w3.org/1999/xlink"><symbol viewBox="0 0 281.25 281.25" xml:space="preserve" id="arrow" xmlns="http://www.w3.org/2000/svg"><path d="M140.625 38.84c-56.16 0-101.787 45.626-101.787 101.785 0 56.16 45.628 101.785 101.787 101.785 56.159 0 101.786-45.626 101.786-101.785S196.784 38.841 140.625 38.841zm0 9.376c51.092 0 92.411 41.317 92.411 92.41 0 51.092-41.319 92.41-92.411 92.41-51.093 0-92.412-41.318-92.412-92.41 0-51.093 41.32-92.41 92.412-92.41zm-20.73 44.16a4.688 4.688 0 0 0-3.345 1.3 4.688 4.688 0 0 0-.147 6.628l38.568 40.321-38.568 40.322a4.688 4.688 0 0 0 .147 6.629 4.688 4.688 0 0 0 6.628-.147l41.668-43.563a4.688 4.688 0 0 0 .111-.13 4.688 4.688 0 0 0 .154-.18 4.688 4.688 0 0 0 .18-.24 4.688 4.688 0 0 0 .124-.186 4.688 4.688 0 0 0 .15-.258 4.688 4.688 0 0 0 .108-.205 4.688 4.688 0 0 0 .12-.27 4.688 4.688 0 0 0 .081-.212 4.688 4.688 0 0 0 .084-.267 4.688 4.688 0 0 0 .066-.254 4.688 4.688 0 0 0 .05-.255 4.688 4.688 0 0 0 .036-.256 4.688 4.688 0 0 0 .022-.264 4.688 4.688 0 0 0 .01-.264 4.688 4.688 0 0 0-.01-.261 4.688 4.688 0 0 0-.022-.266 4.688 4.688 0 0 0-.037-.255 4.688 4.688 0 0 0-.049-.26 4.688 4.688 0 0 0-.064-.24 4.688 4.688 0 0 0-.088-.283 4.688 4.688 0 0 0-.08-.205 4.688 4.688 0 0 0-.116-.264 4.688 4.688 0 0 0-.112-.214 4.688 4.688 0 0 0-.153-.264 4.688 4.688 0 0 0-.12-.174 4.688 4.688 0 0 0-.172-.234 4.688 4.688 0 0 0-.177-.205 4.688 4.688 0 0 0-.097-.114l-41.668-43.562a4.688 4.688 0 0 0-3.283-1.449z"/></symbol><symbol viewBox="0 0 281.25 281.25" xml:space="preserve" id="close" xmlns="http://www.w3.org/2000/svg"><path d="M140.625 38.839c-56.16 0-101.787 45.627-101.787 101.787 0 56.159 45.628 101.784 101.787 101.784 56.159 0 101.786-45.625 101.786-101.784 0-56.16-45.627-101.787-101.786-101.787zm0 9.375c51.092 0 92.411 41.319 92.411 92.412 0 51.092-41.319 92.41-92.411 92.41-51.093 0-92.412-41.318-92.412-92.41 0-51.093 41.32-92.412 92.412-92.412zm-34.939 52.784a4.688 4.688 0 0 0-3.314 1.373 4.688 4.688 0 0 0 0 6.629l31.624 31.624-31.624 31.624a4.688 4.688 0 0 0 0 6.63 4.688 4.688 0 0 0 6.629 0l31.624-31.624 31.624 31.624a4.688 4.688 0 0 0 6.628 0 4.688 4.688 0 0 0 0-6.63l-31.624-31.623 31.624-31.624a4.688 4.688 0 0 0 0-6.63 4.688 4.688 0 0 0-3.314-1.373 4.688 4.688 0 0 0-3.314 1.373l-31.624 31.624-31.624-31.624a4.688 4.688 0 0 0-3.315-1.373z"/></symbol><symbol viewBox="0 0 281.25 281.25" xml:space="preserve" id="mail" xmlns="http://www.w3.org/2000/svg"><path d="M44.503 63.963a4.688 4.688 0 0 0-.209.057 4.688 4.688 0 0 0-.315-.028 4.688 4.688 0 0 0-1.783.59 4.688 4.688 0 0 0-.172.144 4.688 4.688 0 0 0-1.185 1.002 4.688 4.688 0 0 0-.196.38 4.688 4.688 0 0 0-.302.583 4.688 4.688 0 0 0-.418 1.558 4.688 4.688 0 0 0-.108.402v143.948a4.688 4.688 0 0 0 4.688 4.687h192.244a4.688 4.688 0 0 0 4.688-4.687V68.65a4.688 4.688 0 0 0-.011-.04 4.688 4.688 0 0 0-.614-2.29 4.688 4.688 0 0 0-.01-.018 4.688 4.688 0 0 0-.39-.573 4.688 4.688 0 0 0-1.176-.993 4.688 4.688 0 0 0-.183-.155 4.688 4.688 0 0 0-1.781-.588 4.688 4.688 0 0 0-.315.028 4.688 4.688 0 0 0-.209-.057zm13.39 9.375h165.464l-82.731 66.013zm-8.703 5.05 88.512 70.624a4.688 4.688 0 0 0 .353.183 4.688 4.688 0 0 0 .804.416 4.688 4.688 0 0 0 .864.275 4.688 4.688 0 0 0 .901.076 4.688 4.688 0 0 0 .904-.076 4.688 4.688 0 0 0 .858-.273 4.688 4.688 0 0 0 .814-.421 4.688 4.688 0 0 0 .348-.18l88.511-70.624v129.524H49.19z"/></symbol><symbol viewBox="0 0 281.25 281.25" xml:space="preserve" id="plus" xmlns="http://www.w3.org/2000/svg"><path d="M140.625 38.839c-56.16 0-101.787 45.627-101.787 101.787 0 56.159 45.628 101.784 101.787 101.784 56.159 0 101.786-45.625 101.786-101.784 0-56.16-45.627-101.787-101.786-101.787zm0 9.375c51.092 0 92.411 41.319 92.411 92.412 0 51.092-41.319 92.41-92.411 92.41-51.093 0-92.412-41.318-92.412-92.41 0-51.093 41.32-92.412 92.412-92.412zm0 38.313a4.688 4.688 0 0 0-4.688 4.688v44.723H91.215a4.688 4.688 0 0 0-4.687 4.688 4.688 4.688 0 0 0 4.687 4.687h44.722v44.722a4.688 4.688 0 0 0 4.688 4.687 4.688 4.688 0 0 0 4.687-4.687v-44.722h44.722a4.688 4.688 0 0 0 4.687-4.688 4.688 4.688 0 0 0-4.687-4.687h-44.722V91.214a4.688 4.688 0 0 0-4.687-4.687z"/></symbol></svg>